<svg width="1024" height="1024" viewBox="0 0 1024 1024" fill="none" xmlns="http://www.w3.org/2000/svg">
<rect width="1024" height="1024" rx="256" fill="#426A5A"/>
<path d="M709.406 848.5C722.688 848.5 732.844 839.125 732.844 825.062V775.062C825.031 768.031 901.594 716.859 901.594 622.719C901.594 540.688 845.344 499.281 744.953 475.062L732.844 472.328V294.594C779.328 300.844 809.406 326.234 826.594 371.547C832.062 388.344 843 399.281 861.359 399.281C880.109 399.281 893.391 386.391 893.391 367.641C893.391 361.781 892.609 355.922 891.047 350.062C873.078 283.656 810.578 240.297 732.844 233.266V183.266C732.844 169.203 722.688 159.828 709.406 159.828C696.125 159.828 685.969 169.203 685.969 183.266V233.656C593.391 241.859 527.375 297.328 527.375 381.312C527.375 458.266 579.719 501.625 676.984 525.062L685.969 527.406V713.734C626.203 707.094 596.516 676.625 583.625 636.391C576.984 616.859 564.875 608.656 548.859 608.656C530.109 608.656 516.828 621.547 516.828 640.297C516.828 646.156 517.609 652.016 519.172 657.875C537.531 727.016 606.281 767.641 685.969 774.672V825.062C685.969 839.125 696.125 848.5 709.406 848.5ZM595.344 376.625C595.344 338.734 626.594 302.797 685.969 294.984V461C618.781 444.594 595.344 414.906 595.344 376.625ZM735.188 539.125C812.531 557.875 833.625 585.219 833.625 628.188C833.625 673.109 805.5 708.656 732.844 714.125V538.734L735.188 539.125Z" fill="#BCFFC3"/>
<rect x="119" y="340" width="349" height="50" rx="25" fill="#AE875E"/>
<rect x="162" y="487" width="306" height="50" rx="25" fill="#DDAE7E"/>
<rect x="204" y="634" width="264" height="50" rx="25" fill="#FED99E"/>
</svg>
